ply
format ascii 1.0
element vertex 256
comment vertices
property float x
property float y
property float z
end_header
0.954444646835327148 0.875882923603057861 2.14511275291442871
0.275460004806518555 -5.3219304084777832 3.3114926815032959
-2.3268280029296875 0.940660655498504639 4.8000946044921875
2.97372889518737793 -1.13652217388153076 3.17297029495239258
-0.554858267307281494 -0.557729601860046387 1.29442620277404785
1.47255802154541016 -1.47602438926696777 3.36811089515686035
-1.28926551342010498 1.2703855037689209 1.74487209320068359
3.25611019134521484 -3.97452688217163086 2.9104006290435791
-0.270561873912811279 0.614920914173126221 1.30026078224182129
0.0791895538568496704 0.176731973886489868 2.67913675308227539
2.06459307670593262 1.57475709915161133 2.8526618480682373
1.64139008522033691 -1.74684810638427734 3.55801224708557129
1.72655057907104492 -1.28016960620880127 2.70306301116943359
0.990869760513305664 0.125447526574134827 2.78896713256835938
-0.759678959846496582 1.1039276123046875 4.07676458358764648
1.85410571098327637 -0.0856664776802062988 3.58571767807006836
-0.350703299045562744 0.511356592178344727 1.58307766914367676
1.03018927574157715 0.74593663215637207 1.45587027072906494
1.11702382564544678 -0.0216233804821968079 1.97517025470733643
0.284996300935745239 0.720579922199249268 2.65326666831970215
-0.464126437902450562 0.529245078563690186 1.20269095897674561
-1.35705029964447021 1.13657689094543457 2.86223697662353516
-0.5217476487159729 -0.383207827806472778 1.26378762722015381
1.90631842613220215 -2.79336857795715332 3.80425119400024414
1.08332860469818115 0.0736491680145263672 4.23709392547607422
2.75389647483825684 -2.16636419296264648 3.01753854751586914
1.1709442138671875 0.669596374034881592 2.66538834571838379
0.732219517230987549 0.243806809186935425 2.21607613563537598
2.12813758850097656 -0.339615464210510254 2.99755382537841797
-0.525992333889007568 0.958393871784210205 4.08834743499755859
2.41005468368530273 -1.05094432830810547 3.30187463760375977
-0.0321974977850914001 0.657409965991973877 2.26969766616821289
2.44249629974365234 0.191543504595756531 3.35740137100219727
-1.13293910026550293 0.359452217817306519 1.48428356647491455
0.317792415618896484 0.579133093357086182 1.31941652297973633
0.202835977077484131 0.662629663944244385 2.10085177421569824
0.731965005397796631 1.35558438301086426 2.86461544036865234
-0.512524306774139404 0.429973691701889038 1.16352033615112305
1.2496190071105957 0.662009179592132568 1.93167793750762939
-0.430547177791595459 0.57653653621673584 1.28133654594421387
0.37353968620300293 0.281275629997253418 2.71938085556030273
3.14117717742919922 -2.77491569519042969 2.93930387496948242
1.70833122730255127 -0.245146334171295166 3.42307567596435547
-0.0403009802103042603 -2.1374356746673584 3.43118476867675781
0.67315906286239624 0.428513824939727783 2.14559245109558105
-0.312655180692672729 0.579256832599639893 1.15398216247558594
0.0884050428867340088 1.15240335464477539 3.13272523880004883
-0.571754574775695801 0.463799804449081421 1.9449915885925293
-0.77248227596282959 -0.0833396017551422119 1.32872569561004639
2.55949497222900391 -2.72743535041809082 3.33505821228027344
1.29718828201293945 -0.0646722912788391113 1.99065637588500977
2.97989511489868164 -1.89797329902648926 3.07292556762695312
-0.274906933307647705 0.0900861993432044983 1.04541313648223877
0.280065685510635376 0.464325249195098877 2.23254919052124023
0.656487464904785156 1.07626903057098389 2.08485651016235352
-1.19382202625274658 0.468171417713165283 2.12703323364257812
2.30968403816223145 0.255008220672607422 3.59487509727478027
2.06796431541442871 0.802301883697509766 3.51769375801086426
-0.160689294338226318 0.848981559276580811 4.16255569458007812
-0.85319817066192627 -0.160584867000579834 1.34542512893676758
1.69123530387878418 0.870845675468444824 2.40250015258789062
0.53813403844833374 0.629989564418792725 2.05948615074157715
1.45675563812255859 -4.54833078384399414 3.21261405944824219
1.50122165679931641 -2.03055834770202637 3.93278908729553223
1.40306639671325684 0.768042385578155518 2.31741523742675781
2.12822604179382324 -2.07594680786132812 3.67128849029541016
1.28633034229278564 0.0272607505321502686 3.88035058975219727
1.63789558410644531 -1.22932219505310059 3.61641478538513184
2.44760608673095703 -1.1175234317779541 3.12070369720458984
0.378439754247665405 0.265920042991638184 2.5690610408782959
0.814199090003967285 1.00708198547363281 1.83798348903656006
1.09822702407836914 0.858611583709716797 1.82723057270050049
0.878090739250183105 -1.89296483993530273 4.09044885635375977
-0.43214830756187439 0.537181317806243896 1.32926905155181885
1.29220521450042725 0.783158838748931885 2.2707517147064209
-0.41573527455329895 0.491711914539337158 1.22500514984130859
2.06468486785888672 -3.00992012023925781 3.57375884056091309
0.757689952850341797 0.107157967984676361 2.65514874458312988
0.846467435359954834 0.537582635879516602 2.11914563179016113
-0.567803859710693359 0.492210924625396729 1.18654215335845947
-0.612313628196716309 0.948396563529968262 3.96682071685791016
2.18183231353759766 -1.84421730041503906 3.30461597442626953
-0.41580626368522644 0.211643233895301819 2.64061307907104492
2.26805257797241211 -0.625623822212219238 3.32267022132873535
-1.09447932243347168 0.86939471960067749 5.19016027450561523
2.04089641571044922 -4.20341825485229492 3.18621158599853516
2.21072483062744141 0.660020172595977783 3.46046829223632812
1.21599924564361572 0.643665552139282227 2.85190629959106445
-0.120860360562801361 0.460905730724334717 1.71740138530731201
2.1875452995300293 0.109934873878955841 3.4270012378692627
-0.629797101020812988 0.492858707904815674 1.2037498950958252
1.03536581993103027 0.0121311023831367493 2.48686122894287109
0.98237299919128418 0.966320157051086426 1.95173883438110352
0.96904289722442627 0.199487209320068359 2.94366216659545898
-0.406688034534454346 0.553228914737701416 1.32107162475585938
-1.21538305282592773 0.222542241215705872 1.80135428905487061
2.12653088569641113 -0.324384629726409912 3.56244301795959473
0.241749018430709839 0.58129042387008667 1.8896336555480957
0.241179034113883972 0.776798844337463379 2.58642315864562988
2.62635135650634766 -3.0374915599822998 3.04739809036254883
-0.901174843311309814 -0.399280548095703125 1.27842891216278076
0.292978584766387939 0.444863319396972656 2.33745479583740234
0.308615386486053467 0.968810498714447021 2.00130105018615723
1.26208603382110596 -0.069181881844997406 1.96360421180725098
-0.60613405704498291 0.504324674606323242 1.30662786960601807
0.336116611957550049 0.44738161563873291 2.54559993743896484
-0.589067518711090088 0.38930433988571167 1.58678627014160156
0.327842414379119873 0.401269763708114624 2.51213645935058594
-0.221178889274597168 0.852884292602539062 4.03039741516113281
1.36025416851043701 0.613527059555053711 1.92230331897735596
0.802021324634552002 0.256280183792114258 2.38748574256896973
1.21421003341674805 -0.000252079218626022339 2.03285598754882812
-0.449664473533630371 0.148115232586860657 1.0469820499420166
1.76752400398254395 0.854917168617248535 3.72578954696655273
0.894276797771453857 0.0929150432348251343 2.81218695640563965
2.92236542701721191 -2.27298235893249512 2.93376994132995605
-0.234703123569488525 0.192250549793243408 2.58760476112365723
1.82103657722473145 -2.38440179824829102 3.79962849617004395
2.45577216148376465 -3.0628056526184082 3.41369009017944336
1.42602312564849854 -2.43296360969543457 3.86431503295898438
2.12857627868652344 -0.437161713838577271 3.80905246734619141
0.793186664581298828 0.117466337978839874 2.68703699111938477
-0.445436984300613403 0.53103935718536377 1.16588723659515381
0.721948444843292236 0.421104758977890015 2.0890052318572998
0.0608750432729721069 0.176914453506469727 3.81705617904663086
2.59413957595825195 -1.87152349948883057 3.05126619338989258
-1.00084710121154785 0.215845197439193726 1.18662488460540771
-0.939071178436279297 0.807769834995269775 2.20793294906616211
0.715459644794464111 0.144785761833190918 2.51386570930480957
2.12189173698425293 0.0165477544069290161 3.21324515342712402
-1.9440314769744873 0.244614183902740479 4.37351036071777344
0.076111912727355957 -1.34168899059295654 3.73778390884399414
0.469655692577362061 0.721958279609680176 2.34729385375976562
0.251973241567611694 0.586288690567016602 2.4046928882598877
0.606841921806335449 0.571815192699432373 1.71724140644073486
2.10251307487487793 0.0203859210014343262 3.42465090751647949
3.0319826602935791 -1.65912795066833496 2.91085696220397949
-0.466122657060623169 0.427395522594451904 1.09004020690917969
-0.390310198068618774 0.568606138229370117 1.20272564888000488
0.616319119930267334 0.445689529180526733 2.18871593475341797
0.834522485733032227 0.212337344884872437 2.18756794929504395
1.02044200897216797 0.748394966125488281 1.91089725494384766
2.69092440605163574 -2.43198585510253906 3.14536952972412109
0.508222460746765137 0.20154339075088501 1.29034185409545898
2.30128026008605957 -2.84048175811767578 3.53016233444213867
-0.7732430100440979 1.04712593555450439 2.53359532356262207
1.14046370983123779 0.743848919868469238 1.85833120346069336
2.60313272476196289 -2.07488775253295898 3.01692342758178711
-0.409719407558441162 1.56831419467926025 4.68815326690673828
2.48051166534423828 -0.809117913246154785 3.20586085319519043
1.40940594673156738 0.654029905796051025 2.05364775657653809
1.17921888828277588 0.78333282470703125 2.5806586742401123
-0.420831769704818726 0.519088566303253174 1.26393795013427734
0.115310519933700562 0.454336464405059814 1.26201856136322021
2.47339677810668945 -0.387763112783432007 3.20328688621520996
0.317230284214019775 0.72247469425201416 2.75353598594665527
0.295389622449874878 0.680428087711334229 1.91823744773864746
-0.360415756702423096 0.77725297212600708 1.38577175140380859
1.25308346748352051 0.768027603626251221 2.56466865539550781
1.77906584739685059 -1.93807101249694824 3.88597679138183594
1.38387429714202881 -0.632368743419647217 3.90485620498657227
2.24488472938537598 0.48783409595489502 3.41942119598388672
2.77538061141967773 -2.87487030029296875 3.28933143615722656
-0.505492448806762695 0.448981761932373047 1.1773141622543335
0.378505557775497437 0.257903784513473511 2.6510009765625
0.547388553619384766 0.545969784259796143 1.87958550453186035
-0.651576042175292969 0.600212395191192627 1.73908042907714844
0.204890578985214233 0.436681061983108521 2.36323928833007812
3.06061077117919922 -2.61275839805603027 2.9449315071105957
-0.808376610279083252 -0.112291455268859863 1.33521723747253418
1.46879565715789795 -3.36621475219726562 3.6235811710357666
2.5425112247467041 -2.24054098129272461 3.11829042434692383
-0.592176556587219238 0.392554759979248047 1.05807793140411377
2.85634875297546387 -3.42495059967041016 2.92379903793334961
2.13517522811889648 0.128024190664291382 3.48534631729125977
-0.500596404075622559 -0.360224515199661255 1.34081149101257324
1.57832419872283936 -4.24300861358642578 3.31689167022705078
0.942248702049255371 0.983737647533416748 2.0141453742980957
-0.411326050758361816 0.539543509483337402 1.21849250793457031
1.81486737728118896 -1.27910172939300537 3.53397631645202637
1.41333723068237305 -2.16792440414428711 4.06074810028076172
1.38348305225372314 0.681223750114440918 2.11464619636535645
1.29865598678588867 -1.33237838745117188 3.65916109085083008
-1.12302160263061523 0.693673372268676758 2.35826253890991211
1.68207216262817383 -0.298608094453811646 3.56014895439147949
1.23485398292541504 0.647813320159912109 1.80236506462097168
2.80127239227294922 -3.34484362602233887 3.00349044799804688
0.875156044960021973 0.128738343715667725 2.56386232376098633
0.496377676725387573 0.558238804340362549 2.51853179931640625
-0.416009008884429932 0.524725973606109619 1.25785565376281738
-0.533248424530029297 0.479497939348220825 1.33469998836517334
-0.270522058010101318 0.601389110088348389 1.63173031806945801
2.1674809455871582 0.0289878547191619873 3.30263710021972656
0.807450175285339355 0.400732249021530151 2.24999189376831055
1.88823199272155762 -2.01164031028747559 3.95746517181396484
-0.413294136524200439 0.545073628425598145 1.22768270969390869
0.956700265407562256 0.915811657905578613 1.95889902114868164
2.37240171432495117 -0.676693558692932129 3.41256475448608398
-0.784888505935668945 -0.105965450406074524 1.29646587371826172
1.42638647556304932 0.646827042102813721 2.1280827522277832
-0.26736178994178772 0.190109655261039734 2.67197823524475098
2.34638524055480957 -0.849586963653564453 3.33849477767944336
0.027853548526763916 0.373704731464385986 3.96474599838256836
1.04086518287658691 0.825020432472229004 2.29481410980224609
2.41333150863647461 -1.16791796684265137 3.43752288818359375
2.41000699996948242 -2.69255685806274414 3.45519804954528809
0.22342836856842041 0.747504115104675293 2.15828204154968262
-0.310295313596725464 0.198266491293907166 2.55728745460510254
-0.736502230167388916 0.836424350738525391 1.97982609272003174
0.540994882583618164 0.41408383846282959 2.61342406272888184
-0.394581794738769531 0.549431741237640381 1.16433811187744141
2.3029024600982666 -0.580528736114501953 3.52682352066040039
2.21301603317260742 0.239527300000190735 3.3500058650970459
0.217437416315078735 0.787368535995483398 2.86512398719787598
0.240162953734397888 0.556621313095092773 1.25620555877685547
1.31650757789611816 -0.105828449130058289 1.87842190265655518
0.276060968637466431 0.667509734630584717 1.75477397441864014
1.22873020172119141 0.843506872653961182 2.20814704895019531
3.00167274475097656 -2.3737795352935791 2.96791648864746094
0.837329387664794922 -3.9698486328125 3.4384307861328125
-0.431409448385238647 0.55915224552154541 1.17166125774383545
0.842872321605682373 0.137239038944244385 2.77203512191772461
0.306692361831665039 0.279278159141540527 2.67378330230712891
1.23856866359710693 -0.0236958209425210953 2.22669744491577148
0.116776041686534882 0.483181923627853394 1.3918076753616333
-0.639503717422485352 0.357189208269119263 1.13308882713317871
0.329680800437927246 0.348134696483612061 2.52512311935424805
0.79625236988067627 0.389917194843292236 2.18277788162231445
0.713207840919494629 0.254761487245559692 2.13500452041625977
1.37693595886230469 0.0384664833545684814 4.03129196166992188
-0.456639081239700317 0.582454264163970947 1.48498570919036865
1.2920609712600708 -0.072118714451789856 2.03886866569519043
1.31523966789245605 0.664891719818115234 2.06504034996032715
-0.482528269290924072 0.49288591742515564 1.272757887840271
0.958806633949279785 0.957035064697265625 1.97477841377258301
-0.245542436838150024 0.316766172647476196 1.04407501220703125
2.7815392017364502 -3.07752704620361328 3.10855579376220703
2.19806599617004395 -3.24311017990112305 3.59607625007629395
1.79179227352142334 -2.38205575942993164 3.47878813743591309
3.15034842491149902 -2.84715843200683594 2.83745336532592773
-0.440239489078521729 0.553092002868652344 1.18517553806304932
0.413327127695083618 -3.31680822372436523 3.75764608383178711
0.979807138442993164 0.852818667888641357 2.17085886001586914
0.799713253974914551 0.11851857602596283 2.44367480278015137
2.65465927124023438 -0.0415362119674682617 3.45106196403503418
-1.02536129951477051 0.196223869919776917 1.19922971725463867
-0.557648420333862305 0.241596683859825134 1.04940938949584961
0.321239650249481201 0.767226934432983398 2.60074830055236816
0.200319066643714905 0.819355905055999756 2.34527850151062012
-0.615345120429992676 0.468035757541656494 1.14731264114379883
2.24800825119018555 0.475320935249328613 3.4616854190826416
1.24413573741912842 0.627981960773468018 2.07417941093444824
2.77963972091674805 -1.87942218780517578 3.05274701118469238
1.05041158199310303 0.28064998984336853 3.16594409942626953
-0.812499880790710449 -0.496712714433670044 1.25472104549407959
-0.811031639575958252 -0.0949936807155609131 1.34327268600463867
