ply
format ascii 1.0
element vertex 256
comment vertices
property float x
property float y
property float z
end_header
0.887732446193695068 0.872733473777770996 2.00043869018554688
0.832889735698699951 -2.94566655158996582 3.99792218208312988
-2.31099677085876465 0.541027665138244629 5.03974199295043945
2.50037837028503418 -0.711151063442230225 3.35147500038146973
-0.649849951267242432 -0.443564951419830322 1.31733417510986328
0.267394959926605225 0.211821675300598145 4.02446413040161133
-1.25241661071777344 1.30965030193328857 1.85660362243652344
2.34989190101623535 -2.39904475212097168 3.40915775299072266
-0.0978423058986663818 0.562612235546112061 1.3309485912322998
0.0464242100715637207 0.19150775671005249 2.53315234184265137
2.05446910858154297 1.26153552532196045 3.04443860054016113
1.25927340984344482 -0.974656462669372559 3.91367864608764648
1.67047631740570068 -1.56071293354034424 2.9529719352722168
1.04469013214111328 0.226305931806564331 2.51555967330932617
-0.737245619297027588 0.983996570110321045 4.0498809814453125
1.81834912300109863 0.186485588550567627 3.46177482604980469
-0.294114738702774048 0.566163301467895508 1.65319788455963135
1.0222705602645874 0.810758829116821289 1.4520576000213623
1.13385128974914551 0.0226733982563018799 1.92307984828948975
0.329713284969329834 0.828779458999633789 2.43977141380310059
-0.508791327476501465 0.512830913066864014 1.19888067245483398
-1.38528823852539062 0.768021285533905029 3.0617058277130127
-0.641016721725463867 -0.30528751015663147 1.25397491455078125
1.54452633857727051 -2.04061055183410645 3.89802384376525879
1.05356109142303467 -0.268333971500396729 4.46162509918212891
2.2523343563079834 -1.42251491546630859 3.31290435791015625
1.16515195369720459 0.71964108943939209 2.43364548683166504
0.728936493396759033 0.336449384689331055 2.08546781539916992
2.09786820411682129 -0.0284529328346252441 2.90597248077392578
-0.502954840660095215 0.92808687686920166 4.00037813186645508
1.95058774948120117 -0.522330522537231445 3.54082822799682617
-0.057982027530670166 0.67006605863571167 2.20615005493164062
2.54722070693969727 0.337001591920852661 3.23095393180847168
-0.963663578033447266 0.454802244901657104 1.59311223030090332
0.285075128078460693 0.671405136585235596 1.4159693717956543
0.175141587853431702 0.661519110202789307 2.04271101951599121
0.70453953742980957 1.11060833930969238 3.11158967018127441
-0.491836011409759521 0.36029362678527832 1.14364361763000488
1.25270986557006836 0.670865952968597412 1.89959716796875
-0.438898086547851562 0.663572728633880615 1.31648993492126465
0.42045167088508606 0.332901418209075928 2.51165318489074707
2.48678827285766602 -1.80087137222290039 3.27869272232055664
1.7535330057144165 0.0774045884609222412 3.34900164604187012
-0.224400907754898071 0.16547730565071106 3.97139215469360352
0.694132566452026367 0.460975438356399536 2.05640172958374023
-0.273464500904083252 0.618627667427062988 1.14263856410980225
0.148745402693748474 1.37612628936767578 2.87448668479919434
-0.695551514625549316 0.709433197975158691 1.95245146751403809
-0.838733434677124023 -0.0801885873079299927 1.29558563232421875
2.13911795616149902 -1.91070222854614258 3.55608105659484863
1.29011940956115723 -0.0231546759605407715 1.95928502082824707
2.43604636192321777 -1.28961122035980225 3.2740168571472168
-0.376917243003845215 0.161661654710769653 1.07831144332885742
0.285170793533325195 0.43555942177772522 2.12982344627380371
0.611655771732330322 1.06852853298187256 1.98613762855529785
-1.11469507217407227 0.655165791511535645 2.06708574295043945
2.34903383255004883 0.336570799350738525 3.50055122375488281
2.06772994995117188 1.06008052825927734 3.32955789566040039
-0.195407360792160034 1.14961123466491699 4.08187389373779297
-0.892882704734802246 -0.129190042614936829 1.34564423561096191
1.67581915855407715 0.908799946308135986 2.24361157417297363
0.521886765956878662 0.638698339462280273 2.00979113578796387
1.12751114368438721 -2.77139139175415039 3.79430961608886719
1.42520177364349365 -1.45163881778717041 3.98304224014282227
1.44439387321472168 0.771722257137298584 2.18955111503601074
1.89788877964019775 -1.50259709358215332 3.78401660919189453
1.3108367919921875 0.307542204856872559 3.64462852478027344
1.24806296825408936 -0.318737506866455078 3.86116528511047363
2.15111327171325684 -0.768450498580932617 3.28110527992248535
0.382184982299804688 0.265120416879653931 2.38619804382324219
0.600149154663085938 1.05956661701202393 1.82078516483306885
1.13267374038696289 0.866951942443847656 1.75292479991912842
0.939012110233306885 -1.73658883571624756 4.11008548736572266
-0.398048877716064453 0.51568835973739624 1.40417575836181641
1.31694149971008301 0.822894930839538574 2.13661789894104004
-0.37597191333770752 0.41328805685043335 1.24246752262115479
1.58703529834747314 -2.27338695526123047 3.63963127136230469
0.750238239765167236 0.182745635509490967 2.38790178298950195
0.933807551860809326 0.651311516761779785 2.02992677688598633
-0.588875889778137207 0.483446657657623291 1.1645277738571167
-0.586860716342926025 0.845019757747650146 3.86592674255371094
1.5734935998916626 -0.618733763694763184 3.69831705093383789
-0.404022425413131714 0.297734707593917847 2.44865798950195312
2.1711571216583252 -0.464431583881378174 3.31605005264282227
-1.0800621509552002 0.477006256580352783 5.42882776260375977
1.94719123840332031 -2.53110790252685547 3.60778284072875977
2.27527594566345215 0.964217662811279297 3.2250220775604248
1.22367477416992188 0.737347841262817383 2.62373185157775879
-0.0725662708282470703 0.579241514205932617 1.87654733657836914
2.25724434852600098 0.170996367931365967 3.31743216514587402
-0.649303793907165527 0.515942513942718506 1.19569730758666992
1.04099249839782715 0.0505782812833786011 2.22782659530639648
1.06700146198272705 1.01303565502166748 1.87722992897033691
1.04405498504638672 0.299348831176757812 2.66686391830444336
-0.370159298181533813 0.539542078971862793 1.38620877265930176
-0.999374985694885254 0.457013607025146484 1.84649395942687988
2.01718640327453613 -0.0644962936639785767 3.57413005828857422
0.260680168867111206 0.575799047946929932 1.89648175239562988
0.297658741474151611 0.917701959609985352 2.36140108108520508
2.34788680076599121 -2.0453951358795166 3.35603570938110352
-0.883773326873779297 -0.313459455966949463 1.2895503044128418
0.288346022367477417 0.417402684688568115 2.20782709121704102
0.337551742792129517 1.04903483390808105 1.91595923900604248
1.26419472694396973 -0.033702164888381958 1.94109988212585449
-0.627271294593811035 0.527094900608062744 1.34363937377929688
0.419068872928619385 0.472863852977752686 2.40101838111877441
-0.556564509868621826 0.456853240728378296 1.70831882953643799
0.353791534900665283 0.386483252048492432 2.35176205635070801
-0.193204447627067566 1.0776820182800293 3.91163325309753418
1.34713244438171387 0.62486034631729126 1.90342283248901367
0.796731293201446533 0.381693750619888306 2.14639592170715332
1.22421443462371826 0.0444892346858978271 1.96726894378662109
-0.45370522141456604 0.178910195827484131 1.1119312047958374
1.76590204238891602 1.05832576751708984 3.54744100570678711
0.909199178218841553 0.164791792631149292 2.54999089241027832
2.39536476135253906 -1.46510434150695801 3.21915674209594727
-0.156061232089996338 0.176893353462219238 2.44487667083740234
1.71054577827453613 -1.81584179401397705 3.81170082092285156
2.00988650321960449 -2.28562641143798828 3.59607648849487305
1.27712094783782959 -2.04906773567199707 3.84644436836242676
1.75774824619293213 -0.0775453150272369385 3.80287957191467285
0.785035073757171631 0.211318939924240112 2.41136503219604492
-0.452398002147674561 0.548772275447845459 1.10813784599304199
0.771422386169433594 0.475258141756057739 1.97961390018463135
-0.187506794929504395 0.527664780616760254 3.98032689094543457
2.02998924255371094 -1.06610262393951416 3.45082592964172363
-0.87591928243637085 0.207794189453125 1.19976806640625
-0.892574071884155273 0.905889511108398438 2.05738449096679688
0.695766687393188477 0.234442532062530518 2.2707059383392334
2.04219889640808105 0.180136144161224365 3.06237125396728516
-1.91995000839233398 -0.175524592399597168 4.60703325271606445
0.774625182151794434 -0.328421235084533691 4.00173377990722656
0.545857667922973633 0.792705178260803223 2.19889950752258301
0.227915942668914795 0.558319807052612305 2.29680967330932617
0.609012067317962646 0.673727869987487793 1.773681640625
2.06475973129272461 0.341216385364532471 3.35983610153198242
2.32889080047607422 -0.996053993701934814 3.18499898910522461
-0.500122308731079102 0.35564267635345459 1.11479008197784424
-0.342231839895248413 0.595004141330718994 1.22926735877990723
0.619081318378448486 0.496223539113998413 2.07663369178771973
0.824322521686553955 0.27041018009185791 2.02699637413024902
0.976581931114196777 0.736854434013366699 1.87528109550476074
2.20772767066955566 -1.53968644142150879 3.55840229988098145
0.293073475360870361 0.465420454740524292 1.44755125045776367
1.94025862216949463 -2.17190837860107422 3.64428210258483887
-0.869884014129638672 1.1506887674331665 2.37653160095214844
1.13071537017822266 0.769648313522338867 1.81841158866882324
2.27065396308898926 -1.32712912559509277 3.2228391170501709
-0.395706415176391602 1.15738964080810547 4.9179997444152832
2.3638298511505127 -0.63926243782043457 3.31126284599304199
1.40713632106781006 0.691526889801025391 1.99618887901306152
1.227103590965271 0.923968076705932617 2.30785942077636719
-0.416768848896026611 0.520979821681976318 1.28943026065826416
0.0487850159406661987 0.516191780567169189 1.31425297260284424
2.4794764518737793 -0.120738357305526733 3.17246437072753906
0.432714581489562988 0.879925966262817383 2.48373603820800781
0.312641948461532593 0.699067652225494385 1.91289079189300537
-0.233194008469581604 0.843127131462097168 1.56825757026672363
1.31505048274993896 0.887722134590148926 2.30805015563964844
1.60461938381195068 -1.41150438785552979 3.88650298118591309
1.07608425617218018 -0.0964751839637756348 4.00635051727294922
2.32831406593322754 0.630822837352752686 3.24916648864746094
2.27026891708374023 -2.18186759948730469 3.55039238929748535
-0.530647933483123779 0.376475632190704346 1.21183443069458008
0.414577066898345947 0.280412137508392334 2.45746541023254395
0.506033718585968018 0.530859589576721191 1.92069578170776367
-0.640468478202819824 0.686226129531860352 1.7612994909286499
0.16470666229724884 0.420278012752532959 2.23168563842773438
2.40280365943908691 -1.66137003898620605 3.28496432304382324
-0.866644859313964844 -0.103760391473770142 1.31508088111877441
1.04728817939758301 -2.31331491470336914 3.84906625747680664
2.04016900062561035 -1.30418753623962402 3.52546906471252441
-0.591054141521453857 0.371249258518218994 1.08466744422912598
2.42254018783569336 -2.17877554893493652 3.35553956031799316
2.00552892684936523 0.46484065055847168 3.4291229248046875
-0.618862390518188477 -0.312484383583068848 1.37131834030151367
1.36862063407897949 -2.55295729637145996 3.73490691184997559
0.907004833221435547 1.01986658573150635 1.90604448318481445
-0.377625644207000732 0.553422749042510986 1.2349092960357666
1.44334042072296143 -0.406271457672119141 3.6454617977142334
1.27574706077575684 -1.75921630859375 3.9425959587097168
1.39452028274536133 0.724994182586669922 2.03202033042907715
1.12527275085449219 -0.39333575963973999 3.82605862617492676
-1.12929224967956543 0.852941989898681641 2.18319487571716309
1.62831306457519531 0.166804850101470947 3.49803900718688965
1.2236030101776123 0.669162273406982422 1.80135917663574219
1.61270380020141602 -1.1316835880279541 3.73294687271118164
0.891866981983184814 0.198258966207504272 2.30014443397521973
0.54569709300994873 0.621907234191894531 2.33326101303100586
-0.404036998748779297 0.542235732078552246 1.27965915203094482
-0.553392946720123291 0.506136775016784668 1.39916980266571045
-0.249154746532440186 0.684453904628753662 1.72622549533843994
2.23134565353393555 0.287273764610290527 3.08488368988037109
0.854554533958435059 0.505573868751525879 2.09002590179443359
1.58282065391540527 -1.44921183586120605 4.08159399032592773
-0.384359508752822876 0.579313099384307861 1.243766188621521
1.00319898128509521 0.934393703937530518 1.91296899318695068
2.18784308433532715 -0.482422500848770142 3.45403099060058594
-0.830092310905456543 -0.107177942991256714 1.2237088680267334
1.44035530090332031 0.680220603942871094 2.04365944862365723
-0.198776647448539734 0.255861997604370117 2.49550366401672363
2.1650388240814209 -0.634013533592224121 3.49762701988220215
-0.251395672559738159 0.654366672039031982 4.0142064094543457
1.00950193405151367 0.834263801574707031 2.09094429016113281
1.8791884183883667 -0.607306361198425293 3.69819784164428711
1.97298479080200195 -1.79129648208618164 3.69130659103393555
0.208281144499778748 0.743191242218017578 2.08636569976806641
-0.250292032957077026 0.253855615854263306 2.39388513565063477
-0.714286565780639648 0.881869614124298096 1.91805124282836914
0.251631379127502441 0.240660160779953003 2.84050536155700684
-0.390468090772628784 0.594904243946075439 1.15540862083435059
2.20520591735839844 -0.410666555166244507 3.52075576782226562
2.33658719062805176 0.376743733882904053 3.21479249000549316
0.25555121898651123 0.928097248077392578 2.6108241081237793
0.176397010684013367 0.621980011463165283 1.33077883720397949
1.29659736156463623 -0.066144600510597229 1.88315474987030029
0.327253818511962891 0.677796661853790283 1.80371952056884766
1.22788882255554199 0.877212107181549072 2.0863490104675293
2.42716860771179199 -1.51928222179412842 3.27872133255004883
0.957246661186218262 -2.48866105079650879 3.82716941833496094
-0.410419285297393799 0.593020915985107422 1.16372990608215332
0.857645869255065918 0.233593344688415527 2.50218319892883301
0.254691064357757568 0.297097742557525635 2.49172759056091309
1.24715900421142578 -0.0405147038400173187 2.15633869171142578
0.100304707884788513 0.56565546989440918 1.5810999870300293
-0.596842288970947266 0.31712833046913147 1.15160226821899414
0.35208854079246521 0.305342614650726318 2.36391305923461914
0.845552563667297363 0.486130505800247192 2.04048776626586914
0.717023909091949463 0.344533145427703857 2.02485966682434082
1.41290342807769775 0.329696893692016602 3.82100510597229004
-0.496557921171188354 0.550073564052581787 1.58518886566162109
1.28082311153411865 -0.0382198765873908997 2.00684070587158203
1.3095703125 0.70690995454788208 1.9889596700668335
-0.529576957225799561 0.492053240537643433 1.31266558170318604
0.917187690734863281 0.971879005432128906 1.89674961566925049
-0.281971514225006104 0.302339762449264526 1.10120308399200439
2.39649605751037598 -2.09681916236877441 3.44358682632446289
1.60497796535491943 -2.30281710624694824 3.79795956611633301
1.33751761913299561 -1.16048276424407959 3.97573947906494141
2.47190165519714355 -1.78967452049255371 3.19869804382324219
-0.451060324907302856 0.600341677665710449 1.18460440635681152
0.798982858657836914 -2.22039556503295898 3.97659087181091309
0.943164467811584473 0.830669701099395752 2.0231328010559082
0.779588222503662109 0.152501001954078674 2.22394776344299316
2.58358383178710938 0.170806288719177246 3.31787681579589844
-0.915113687515258789 0.257337599992752075 1.2540435791015625
-0.512464225292205811 0.254883021116256714 1.0697866678237915
0.379359602928161621 0.905316174030303955 2.36280393600463867
0.206113934516906738 0.882917523384094238 2.20850086212158203
-0.618815779685974121 0.460881143808364868 1.12281227111816406
2.35000967979431152 0.630967617034912109 3.28492951393127441
1.21439456939697266 0.613754510879516602 2.00146627426147461
2.22395420074462891 -1.22367286682128906 3.30017232894897461
1.11427426338195801 0.490001559257507324 2.80252385139465332
-0.786644160747528076 -0.407063484191894531 1.27713942527770996
-0.873377859592437744 -0.0781181305646896362 1.32053875923156738
